<svg xmlns="http://www.w3.org/2000/svg" width="512" height="512" viewBox="0 0 512 512" fill="none"><rect width="512" height="512" rx="31" fill="url(#paint0_linear_403_255)"></rect><path fill-rule="evenodd" clip-rule="evenodd" d="M446.362 267.395C442.944 264.358 438.009 264.358 434.781 268.155C421.492 283.722 408.204 289.987 393.206 289.987C383.904 289.987 376.31 287.898 372.703 283.152C369.856 279.355 368.527 273.85 369.666 267.775H387.131C413.329 267.775 433.073 255.056 433.073 231.895C433.073 214.24 418.835 205.697 404.597 205.697C397.003 205.697 389.599 206.836 382.765 210.443C366.396 217.287 356.961 247.719 354.289 262.08C351.251 273.66 353.529 284.861 359.604 293.024C364.54 299.668 373.653 306.503 391.687 306.503C413.709 306.503 431.744 297.2 446.741 278.786C449.399 275.559 449.779 270.433 446.362 267.395ZM387.131 251.448C398.142 251.448 413.709 249.739 416.556 236.261C418.455 227.908 412.76 222.023 403.837 222.023C389.219 222.023 379.537 232.464 375.171 247.651L375.171 247.651C374.791 248.98 374.412 250.309 374.222 251.448H387.131Z" fill="white"></path><path d="M113.042 172.483L81.9084 284.679L132.841 261.607V282.342L104.641 294.783C104.641 294.783 82.8576 304.992 74.5046 304.992C70.5179 304.992 65.5821 301.195 64.443 296.639C63.304 292.083 64.6329 286.198 65.3922 283.16L74.3147 251.267L88.3629 199.82C91.4004 188.81 94.4378 178.748 97.2855 168.117C98.4245 163.751 102.981 161.093 107.347 162.422C111.713 163.561 114.181 168.117 113.042 172.483Z" fill="white"></path><path d="M133.246 259.118L136.473 247.348C136.473 247.348 146.696 211.649 147.864 208.621C149.032 205.592 153.369 205.203 156.596 206.153C160.963 207.292 163.241 211.848 162.102 216.214L149.003 263.674C146.535 272.217 147.104 279.241 150.332 283.608C153.369 287.784 158.685 288.733 162.671 288.733C169.506 288.733 175.391 285.886 180.516 280.38C185.262 275.444 188.68 268.8 190.958 260.827L204.626 211.658C205.765 207.481 210.321 204.824 214.688 205.963C219.054 207.292 221.522 211.848 220.383 216.024L201.779 283.038C201.019 285.696 201.209 287.404 203.297 287.404C204.626 287.404 205.765 286.455 206.714 285.316L226.355 261.629L247.238 236.759C254.452 228.027 259.957 217.965 261.666 212.46L248.187 260.869L220.003 294.808C214.878 300.883 210.132 305.06 201.589 305.06C196.843 305.06 191.147 303.161 187.54 296.137C179.757 302.971 171.404 305.06 162.671 305.06C151.85 305.06 142.928 300.883 137.233 293.479C130.778 284.936 129.449 272.787 133.246 259.118Z" fill="white"></path><path fill-rule="evenodd" clip-rule="evenodd" d="M234.328 349.525C237.935 349.525 241.163 347.247 242.112 343.64C242.112 343.45 244.39 334.907 255.78 294.661C262.425 302.824 273.815 305.672 283.497 305.672C303.051 305.672 322.458 298.207 345.999 272.389L354.291 262.081C356.69 249.187 364.542 223.335 377.97 213.236C371.71 216.819 366.533 222.458 360.176 229.998L333.558 261.607C329.381 266.353 324.882 270.741 321.465 273.779L323.174 268.273C323.615 266.691 324.007 265.295 324.362 264.027C325.841 258.752 326.695 255.706 327.92 250.808C329.628 244.543 330.198 238.658 329.628 233.153C328.869 226.888 326.781 221.572 323.364 217.016C319.187 211.701 311.024 205.246 296.027 205.246C290.901 205.246 283.877 206.385 276.473 210.562C275.524 208.853 273.815 207.524 271.917 206.955C267.55 205.626 262.994 208.094 261.665 212.46L248.187 260.869C233.98 312.297 228.81 330.555 227.108 336.567C226.535 338.589 226.355 339.226 226.355 339.274C225.216 343.64 227.684 348.006 232.05 349.335C232.81 349.525 233.569 349.525 234.328 349.525ZM310.454 227.077C307.606 223.47 302.67 221.571 296.026 221.571C292.419 221.571 287.104 222.521 281.598 226.697C275.903 231.063 271.726 238.088 269.069 247.58C268.083 250.537 267.337 253.335 266.675 255.817C266.318 257.158 265.985 258.407 265.652 259.54C260.526 277.195 267.36 289.534 282.927 289.534C298.304 289.534 304.189 275.486 307.606 263.147C308.094 261.416 308.52 259.924 308.906 258.574C310.169 254.147 310.999 251.241 312.162 246.441C314.441 238.467 313.681 231.443 310.454 227.077Z" fill="white"></path><defs><linearGradient id="paint0_linear_403_255" x1="15.7922" y1="2.59809e-06" x2="512" y2="524.468" gradientUnits="userSpaceOnUse"><stop stop-color="#7E285B"></stop><stop offset="1" stop-color="#FF0099"></stop></linearGradient></defs></svg>